<mxfile host="Electron" modified="2024-03-30T14:28:16.106Z" agent="Mozilla/5.0 (Windows NT 10.0; Win64; x64) AppleWebKit/537.36 (KHTML, like Gecko) draw.io/24.1.0 Chrome/120.0.6099.109 Electron/28.1.0 Safari/537.36" etag="5VsbOAJ8JRTsEBirg-Zv" version="24.1.0" type="device" pages="3">
  <diagram name="BFD LV2" id="6ydqJjcqqZAonT2vxg4n">
    <mxGraphModel dx="1050" dy="621" grid="1" gridSize="10" guides="1" tooltips="1" connect="1" arrows="1" fold="1" page="1" pageScale="1" pageWidth="827" pageHeight="1169" math="0" shadow="0">
      <root>
        <mxCell id="0" />
        <mxCell id="1" parent="0" />
        <mxCell id="DQsy85eJjjbjE2D0pJQX-6" style="edgeStyle=orthogonalEdgeStyle;rounded=0;orthogonalLoop=1;jettySize=auto;html=1;entryX=0.5;entryY=0;entryDx=0;entryDy=0;endArrow=none;endFill=0;" parent="1" source="DQsy85eJjjbjE2D0pJQX-1" target="DQsy85eJjjbjE2D0pJQX-3" edge="1">
          <mxGeometry relative="1" as="geometry" />
        </mxCell>
        <mxCell id="DQsy85eJjjbjE2D0pJQX-7" style="edgeStyle=orthogonalEdgeStyle;rounded=0;orthogonalLoop=1;jettySize=auto;html=1;entryX=0.5;entryY=0;entryDx=0;entryDy=0;endArrow=none;endFill=0;" parent="1" source="DQsy85eJjjbjE2D0pJQX-1" target="DQsy85eJjjbjE2D0pJQX-4" edge="1">
          <mxGeometry relative="1" as="geometry">
            <Array as="points">
              <mxPoint x="400" y="400" />
              <mxPoint x="120" y="400" />
            </Array>
          </mxGeometry>
        </mxCell>
        <mxCell id="DQsy85eJjjbjE2D0pJQX-8" style="edgeStyle=orthogonalEdgeStyle;rounded=0;orthogonalLoop=1;jettySize=auto;html=1;entryX=0.5;entryY=0;entryDx=0;entryDy=0;endArrow=none;endFill=0;" parent="1" source="DQsy85eJjjbjE2D0pJQX-1" target="DQsy85eJjjbjE2D0pJQX-5" edge="1">
          <mxGeometry relative="1" as="geometry">
            <Array as="points">
              <mxPoint x="400" y="400" />
              <mxPoint x="680" y="400" />
            </Array>
          </mxGeometry>
        </mxCell>
        <mxCell id="DQsy85eJjjbjE2D0pJQX-1" value="Hệ thống quản lí vật tư" style="rounded=0;whiteSpace=wrap;html=1;" parent="1" vertex="1">
          <mxGeometry x="320" y="280" width="160" height="80" as="geometry" />
        </mxCell>
        <mxCell id="DQsy85eJjjbjE2D0pJQX-28" style="edgeStyle=orthogonalEdgeStyle;rounded=0;orthogonalLoop=1;jettySize=auto;html=1;entryX=0;entryY=0.5;entryDx=0;entryDy=0;endArrow=none;endFill=0;" parent="1" source="DQsy85eJjjbjE2D0pJQX-3" target="DQsy85eJjjbjE2D0pJQX-17" edge="1">
          <mxGeometry relative="1" as="geometry">
            <Array as="points">
              <mxPoint x="340" y="883" />
            </Array>
          </mxGeometry>
        </mxCell>
        <mxCell id="DQsy85eJjjbjE2D0pJQX-30" style="edgeStyle=orthogonalEdgeStyle;rounded=0;orthogonalLoop=1;jettySize=auto;html=1;entryX=0;entryY=0.5;entryDx=0;entryDy=0;endArrow=none;endFill=0;" parent="1" source="DQsy85eJjjbjE2D0pJQX-3" target="DQsy85eJjjbjE2D0pJQX-19" edge="1">
          <mxGeometry relative="1" as="geometry">
            <Array as="points">
              <mxPoint x="340" y="783" />
            </Array>
          </mxGeometry>
        </mxCell>
        <mxCell id="DQsy85eJjjbjE2D0pJQX-31" style="edgeStyle=orthogonalEdgeStyle;rounded=0;orthogonalLoop=1;jettySize=auto;html=1;entryX=0;entryY=0.5;entryDx=0;entryDy=0;endArrow=none;endFill=0;" parent="1" source="DQsy85eJjjbjE2D0pJQX-3" target="DQsy85eJjjbjE2D0pJQX-11" edge="1">
          <mxGeometry relative="1" as="geometry">
            <Array as="points">
              <mxPoint x="340" y="683" />
            </Array>
          </mxGeometry>
        </mxCell>
        <mxCell id="DQsy85eJjjbjE2D0pJQX-32" style="edgeStyle=orthogonalEdgeStyle;rounded=0;orthogonalLoop=1;jettySize=auto;html=1;entryX=0;entryY=0.5;entryDx=0;entryDy=0;endArrow=none;endFill=0;" parent="1" source="DQsy85eJjjbjE2D0pJQX-3" target="DQsy85eJjjbjE2D0pJQX-12" edge="1">
          <mxGeometry relative="1" as="geometry">
            <Array as="points">
              <mxPoint x="340" y="578" />
            </Array>
          </mxGeometry>
        </mxCell>
        <mxCell id="DQsy85eJjjbjE2D0pJQX-3" value="Xuất nguyên vật liệu" style="rounded=0;whiteSpace=wrap;html=1;" parent="1" vertex="1">
          <mxGeometry x="320" y="430" width="160" height="80" as="geometry" />
        </mxCell>
        <mxCell id="DQsy85eJjjbjE2D0pJQX-22" style="edgeStyle=orthogonalEdgeStyle;rounded=0;orthogonalLoop=1;jettySize=auto;html=1;entryX=0;entryY=0.5;entryDx=0;entryDy=0;endArrow=none;endFill=0;" parent="1" source="DQsy85eJjjbjE2D0pJQX-4" target="DQsy85eJjjbjE2D0pJQX-10" edge="1">
          <mxGeometry relative="1" as="geometry">
            <Array as="points">
              <mxPoint x="60" y="580" />
            </Array>
          </mxGeometry>
        </mxCell>
        <mxCell id="DQsy85eJjjbjE2D0pJQX-23" style="edgeStyle=orthogonalEdgeStyle;rounded=0;orthogonalLoop=1;jettySize=auto;html=1;endArrow=none;endFill=0;" parent="1" source="DQsy85eJjjbjE2D0pJQX-4" target="DQsy85eJjjbjE2D0pJQX-18" edge="1">
          <mxGeometry relative="1" as="geometry">
            <mxPoint x="80" y="1089" as="targetPoint" />
            <Array as="points">
              <mxPoint x="60" y="1089" />
            </Array>
          </mxGeometry>
        </mxCell>
        <mxCell id="DQsy85eJjjbjE2D0pJQX-24" style="edgeStyle=orthogonalEdgeStyle;rounded=0;orthogonalLoop=1;jettySize=auto;html=1;entryX=0;entryY=0.5;entryDx=0;entryDy=0;endArrow=none;endFill=0;" parent="1" source="DQsy85eJjjbjE2D0pJQX-4" target="DQsy85eJjjbjE2D0pJQX-16" edge="1">
          <mxGeometry relative="1" as="geometry">
            <Array as="points">
              <mxPoint x="60" y="990" />
            </Array>
          </mxGeometry>
        </mxCell>
        <mxCell id="DQsy85eJjjbjE2D0pJQX-25" style="edgeStyle=orthogonalEdgeStyle;rounded=0;orthogonalLoop=1;jettySize=auto;html=1;entryX=0;entryY=0.5;entryDx=0;entryDy=0;endArrow=none;endFill=0;" parent="1" source="DQsy85eJjjbjE2D0pJQX-4" target="DQsy85eJjjbjE2D0pJQX-15" edge="1">
          <mxGeometry relative="1" as="geometry">
            <Array as="points">
              <mxPoint x="60" y="885" />
            </Array>
          </mxGeometry>
        </mxCell>
        <mxCell id="DQsy85eJjjbjE2D0pJQX-26" style="edgeStyle=orthogonalEdgeStyle;rounded=0;orthogonalLoop=1;jettySize=auto;html=1;entryX=0;entryY=0.5;entryDx=0;entryDy=0;endArrow=none;endFill=0;" parent="1" source="DQsy85eJjjbjE2D0pJQX-4" target="DQsy85eJjjbjE2D0pJQX-13" edge="1">
          <mxGeometry relative="1" as="geometry">
            <Array as="points">
              <mxPoint x="60" y="780" />
            </Array>
          </mxGeometry>
        </mxCell>
        <mxCell id="DQsy85eJjjbjE2D0pJQX-27" style="edgeStyle=orthogonalEdgeStyle;rounded=0;orthogonalLoop=1;jettySize=auto;html=1;entryX=0;entryY=0.5;entryDx=0;entryDy=0;endArrow=none;endFill=0;" parent="1" source="DQsy85eJjjbjE2D0pJQX-4" target="DQsy85eJjjbjE2D0pJQX-14" edge="1">
          <mxGeometry relative="1" as="geometry">
            <Array as="points">
              <mxPoint x="60" y="680" />
            </Array>
          </mxGeometry>
        </mxCell>
        <mxCell id="DQsy85eJjjbjE2D0pJQX-4" value="Mua NVL về nhập kho" style="rounded=0;whiteSpace=wrap;html=1;" parent="1" vertex="1">
          <mxGeometry x="40" y="430" width="160" height="80" as="geometry" />
        </mxCell>
        <mxCell id="DQsy85eJjjbjE2D0pJQX-33" style="edgeStyle=orthogonalEdgeStyle;rounded=0;orthogonalLoop=1;jettySize=auto;html=1;entryX=0;entryY=0.5;entryDx=0;entryDy=0;endArrow=none;endFill=0;" parent="1" source="DQsy85eJjjbjE2D0pJQX-5" target="DQsy85eJjjbjE2D0pJQX-9" edge="1">
          <mxGeometry relative="1" as="geometry">
            <Array as="points">
              <mxPoint x="620" y="580" />
            </Array>
          </mxGeometry>
        </mxCell>
        <mxCell id="DQsy85eJjjbjE2D0pJQX-5" value="Báo cáo, tổng kết" style="rounded=0;whiteSpace=wrap;html=1;" parent="1" vertex="1">
          <mxGeometry x="600" y="430" width="160" height="80" as="geometry" />
        </mxCell>
        <mxCell id="DQsy85eJjjbjE2D0pJQX-9" value="Báo cáo" style="rounded=0;whiteSpace=wrap;html=1;" parent="1" vertex="1">
          <mxGeometry x="640" y="550" width="120" height="60" as="geometry" />
        </mxCell>
        <mxCell id="DQsy85eJjjbjE2D0pJQX-10" value="Phiếu đánh giá NCC&amp;nbsp;" style="rounded=0;whiteSpace=wrap;html=1;" parent="1" vertex="1">
          <mxGeometry x="80" y="550" width="120" height="60" as="geometry" />
        </mxCell>
        <mxCell id="DQsy85eJjjbjE2D0pJQX-11" value="Đơn đề nghị xuất bán" style="rounded=0;whiteSpace=wrap;html=1;" parent="1" vertex="1">
          <mxGeometry x="360" y="650" width="120" height="65" as="geometry" />
        </mxCell>
        <mxCell id="DQsy85eJjjbjE2D0pJQX-12" value="Phiếu xuất kho" style="rounded=0;whiteSpace=wrap;html=1;" parent="1" vertex="1">
          <mxGeometry x="360" y="545" width="120" height="65" as="geometry" />
        </mxCell>
        <mxCell id="DQsy85eJjjbjE2D0pJQX-13" value="Đơn đặt hàng" style="rounded=0;whiteSpace=wrap;html=1;" parent="1" vertex="1">
          <mxGeometry x="80" y="750" width="120" height="60" as="geometry" />
        </mxCell>
        <mxCell id="DQsy85eJjjbjE2D0pJQX-14" value="Hợp đồng kinh tế" style="rounded=0;whiteSpace=wrap;html=1;" parent="1" vertex="1">
          <mxGeometry x="80" y="650" width="120" height="60" as="geometry" />
        </mxCell>
        <mxCell id="DQsy85eJjjbjE2D0pJQX-15" value="Phiếu nhập kho" style="rounded=0;whiteSpace=wrap;html=1;" parent="1" vertex="1">
          <mxGeometry x="80" y="855" width="120" height="60" as="geometry" />
        </mxCell>
        <mxCell id="DQsy85eJjjbjE2D0pJQX-16" value="Hoá đơn thanh toán" style="rounded=0;whiteSpace=wrap;html=1;" parent="1" vertex="1">
          <mxGeometry x="80" y="960" width="120" height="60" as="geometry" />
        </mxCell>
        <mxCell id="DQsy85eJjjbjE2D0pJQX-17" value="Phiếu thu" style="rounded=0;whiteSpace=wrap;html=1;" parent="1" vertex="1">
          <mxGeometry x="360" y="850" width="120" height="65" as="geometry" />
        </mxCell>
        <mxCell id="DQsy85eJjjbjE2D0pJQX-18" value="Phiếu chi" style="rounded=0;whiteSpace=wrap;html=1;" parent="1" vertex="1">
          <mxGeometry x="80" y="1060" width="120" height="60" as="geometry" />
        </mxCell>
        <mxCell id="DQsy85eJjjbjE2D0pJQX-19" value="Thẻ kho" style="rounded=0;whiteSpace=wrap;html=1;" parent="1" vertex="1">
          <mxGeometry x="360" y="750" width="120" height="65" as="geometry" />
        </mxCell>
      </root>
    </mxGraphModel>
  </diagram>
  <diagram id="tXNGzalQnBPT-AE7XRv5" name="DFD LV0">
    <mxGraphModel dx="1050" dy="621" grid="1" gridSize="10" guides="1" tooltips="1" connect="1" arrows="1" fold="1" page="1" pageScale="1" pageWidth="827" pageHeight="1169" math="0" shadow="0">
      <root>
        <mxCell id="0" />
        <mxCell id="1" parent="0" />
        <mxCell id="5YvC3rnZWf4jLZ9lTZ32-6" style="edgeStyle=orthogonalEdgeStyle;rounded=0;orthogonalLoop=1;jettySize=auto;html=1;" parent="1" source="5YvC3rnZWf4jLZ9lTZ32-1" target="5YvC3rnZWf4jLZ9lTZ32-5" edge="1">
          <mxGeometry relative="1" as="geometry">
            <Array as="points">
              <mxPoint x="580" y="810" />
              <mxPoint x="580" y="810" />
            </Array>
          </mxGeometry>
        </mxCell>
        <mxCell id="5YvC3rnZWf4jLZ9lTZ32-11" style="edgeStyle=orthogonalEdgeStyle;rounded=0;orthogonalLoop=1;jettySize=auto;html=1;" parent="1" source="5YvC3rnZWf4jLZ9lTZ32-1" target="5YvC3rnZWf4jLZ9lTZ32-2" edge="1">
          <mxGeometry relative="1" as="geometry">
            <Array as="points">
              <mxPoint x="280" y="810" />
              <mxPoint x="280" y="810" />
            </Array>
          </mxGeometry>
        </mxCell>
        <mxCell id="5YvC3rnZWf4jLZ9lTZ32-17" style="edgeStyle=orthogonalEdgeStyle;rounded=0;orthogonalLoop=1;jettySize=auto;html=1;" parent="1" source="5YvC3rnZWf4jLZ9lTZ32-1" target="5YvC3rnZWf4jLZ9lTZ32-3" edge="1">
          <mxGeometry relative="1" as="geometry">
            <Array as="points">
              <mxPoint x="430" y="700" />
              <mxPoint x="430" y="700" />
            </Array>
          </mxGeometry>
        </mxCell>
        <mxCell id="5YvC3rnZWf4jLZ9lTZ32-20" style="edgeStyle=orthogonalEdgeStyle;rounded=0;orthogonalLoop=1;jettySize=auto;html=1;" parent="1" source="5YvC3rnZWf4jLZ9lTZ32-1" target="5YvC3rnZWf4jLZ9lTZ32-4" edge="1">
          <mxGeometry relative="1" as="geometry">
            <Array as="points">
              <mxPoint x="410" y="940" />
              <mxPoint x="410" y="940" />
            </Array>
          </mxGeometry>
        </mxCell>
        <mxCell id="uluxawA2eOM56OSotcPA-2" style="rounded=0;orthogonalLoop=1;jettySize=auto;html=1;" edge="1" parent="1" source="5YvC3rnZWf4jLZ9lTZ32-1" target="uluxawA2eOM56OSotcPA-1">
          <mxGeometry relative="1" as="geometry">
            <Array as="points">
              <mxPoint x="250" y="720" />
            </Array>
          </mxGeometry>
        </mxCell>
        <mxCell id="5YvC3rnZWf4jLZ9lTZ32-1" value="Hệ thống quản lí vật tư" style="ellipse;whiteSpace=wrap;html=1;aspect=fixed;" parent="1" vertex="1">
          <mxGeometry x="364" y="760" width="120" height="120" as="geometry" />
        </mxCell>
        <mxCell id="5YvC3rnZWf4jLZ9lTZ32-14" style="edgeStyle=orthogonalEdgeStyle;rounded=0;orthogonalLoop=1;jettySize=auto;html=1;" parent="1" source="5YvC3rnZWf4jLZ9lTZ32-2" target="5YvC3rnZWf4jLZ9lTZ32-1" edge="1">
          <mxGeometry relative="1" as="geometry">
            <Array as="points">
              <mxPoint x="280" y="830" />
              <mxPoint x="280" y="830" />
            </Array>
          </mxGeometry>
        </mxCell>
        <mxCell id="5YvC3rnZWf4jLZ9lTZ32-2" value="Khách hàng" style="rounded=0;whiteSpace=wrap;html=1;" parent="1" vertex="1">
          <mxGeometry x="60" y="790" width="120" height="60" as="geometry" />
        </mxCell>
        <mxCell id="5YvC3rnZWf4jLZ9lTZ32-16" style="edgeStyle=orthogonalEdgeStyle;rounded=0;orthogonalLoop=1;jettySize=auto;html=1;" parent="1" source="5YvC3rnZWf4jLZ9lTZ32-3" target="5YvC3rnZWf4jLZ9lTZ32-1" edge="1">
          <mxGeometry relative="1" as="geometry">
            <Array as="points">
              <mxPoint x="410" y="700" />
              <mxPoint x="410" y="700" />
            </Array>
          </mxGeometry>
        </mxCell>
        <mxCell id="5YvC3rnZWf4jLZ9lTZ32-3" value="Kho" style="rounded=0;whiteSpace=wrap;html=1;" parent="1" vertex="1">
          <mxGeometry x="354" y="440" width="120" height="60" as="geometry" />
        </mxCell>
        <mxCell id="5YvC3rnZWf4jLZ9lTZ32-21" style="edgeStyle=orthogonalEdgeStyle;rounded=0;orthogonalLoop=1;jettySize=auto;html=1;" parent="1" source="5YvC3rnZWf4jLZ9lTZ32-4" target="5YvC3rnZWf4jLZ9lTZ32-1" edge="1">
          <mxGeometry relative="1" as="geometry">
            <Array as="points">
              <mxPoint x="430" y="940" />
              <mxPoint x="430" y="940" />
            </Array>
          </mxGeometry>
        </mxCell>
        <mxCell id="5YvC3rnZWf4jLZ9lTZ32-4" value="Kế toán" style="rounded=0;whiteSpace=wrap;html=1;" parent="1" vertex="1">
          <mxGeometry x="354" y="1180" width="120" height="60" as="geometry" />
        </mxCell>
        <mxCell id="5YvC3rnZWf4jLZ9lTZ32-8" style="edgeStyle=orthogonalEdgeStyle;rounded=0;orthogonalLoop=1;jettySize=auto;html=1;" parent="1" source="5YvC3rnZWf4jLZ9lTZ32-5" target="5YvC3rnZWf4jLZ9lTZ32-1" edge="1">
          <mxGeometry relative="1" as="geometry">
            <Array as="points">
              <mxPoint x="580" y="830" />
              <mxPoint x="580" y="830" />
            </Array>
          </mxGeometry>
        </mxCell>
        <mxCell id="5YvC3rnZWf4jLZ9lTZ32-5" value="NCC" style="rounded=0;whiteSpace=wrap;html=1;" parent="1" vertex="1">
          <mxGeometry x="680" y="790" width="120" height="60" as="geometry" />
        </mxCell>
        <mxCell id="5YvC3rnZWf4jLZ9lTZ32-7" value="Lập phiếu đánh giá, lực chọn,&lt;div&gt;làm hợp đồng, lập đơn mua NVL&lt;/div&gt;" style="text;html=1;align=center;verticalAlign=middle;resizable=0;points=[];autosize=1;strokeColor=none;fillColor=none;" parent="1" vertex="1">
          <mxGeometry x="480" y="770" width="200" height="40" as="geometry" />
        </mxCell>
        <mxCell id="5YvC3rnZWf4jLZ9lTZ32-9" value="Cấp hàng" style="text;html=1;align=center;verticalAlign=middle;resizable=0;points=[];autosize=1;strokeColor=none;fillColor=none;" parent="1" vertex="1">
          <mxGeometry x="540" y="840" width="80" height="30" as="geometry" />
        </mxCell>
        <mxCell id="5YvC3rnZWf4jLZ9lTZ32-12" value="Lập hoá đơn, cung cấp NVL" style="text;html=1;align=center;verticalAlign=middle;resizable=0;points=[];autosize=1;strokeColor=none;fillColor=none;" parent="1" vertex="1">
          <mxGeometry x="190" y="780" width="170" height="30" as="geometry" />
        </mxCell>
        <mxCell id="5YvC3rnZWf4jLZ9lTZ32-15" value="Thanh toán" style="text;html=1;align=center;verticalAlign=middle;resizable=0;points=[];autosize=1;strokeColor=none;fillColor=none;" parent="1" vertex="1">
          <mxGeometry x="230" y="830" width="80" height="30" as="geometry" />
        </mxCell>
        <mxCell id="5YvC3rnZWf4jLZ9lTZ32-18" value="Viết phiếu nhập kho, phiếu xuất kho, thẻ kho" style="text;html=1;align=center;verticalAlign=middle;resizable=0;points=[];autosize=1;strokeColor=none;fillColor=none;rotation=-90;" parent="1" vertex="1">
          <mxGeometry x="270" y="630" width="260" height="30" as="geometry" />
        </mxCell>
        <mxCell id="5YvC3rnZWf4jLZ9lTZ32-19" value="Thông báo nhận NVL, thông báo cung cấp NVL" style="text;html=1;align=center;verticalAlign=middle;resizable=0;points=[];autosize=1;strokeColor=none;fillColor=none;rotation=90;" parent="1" vertex="1">
          <mxGeometry x="310" y="620" width="280" height="30" as="geometry" />
        </mxCell>
        <mxCell id="5YvC3rnZWf4jLZ9lTZ32-22" value="Gửi phiếu nhập kho, phiếu xuất kho, hoá đơn, báo cáo" style="text;html=1;align=center;verticalAlign=middle;resizable=0;points=[];autosize=1;strokeColor=none;fillColor=none;rotation=-90;" parent="1" vertex="1">
          <mxGeometry x="230" y="1010" width="310" height="30" as="geometry" />
        </mxCell>
        <mxCell id="5YvC3rnZWf4jLZ9lTZ32-23" value="Thanh toán hoá đơn, kiểm kê NVL&lt;span style=&quot;background-color: initial;&quot;&gt;&amp;nbsp;&lt;/span&gt;" style="text;html=1;align=center;verticalAlign=middle;resizable=0;points=[];autosize=1;strokeColor=none;fillColor=none;rotation=90;" parent="1" vertex="1">
          <mxGeometry x="345" y="1010" width="210" height="30" as="geometry" />
        </mxCell>
        <mxCell id="uluxawA2eOM56OSotcPA-4" style="rounded=0;orthogonalLoop=1;jettySize=auto;html=1;" edge="1" parent="1" source="uluxawA2eOM56OSotcPA-1" target="5YvC3rnZWf4jLZ9lTZ32-1">
          <mxGeometry relative="1" as="geometry">
            <Array as="points">
              <mxPoint x="280" y="680" />
            </Array>
          </mxGeometry>
        </mxCell>
        <mxCell id="uluxawA2eOM56OSotcPA-1" value="BPSX" style="rounded=0;whiteSpace=wrap;html=1;" vertex="1" parent="1">
          <mxGeometry x="50" y="560" width="120" height="60" as="geometry" />
        </mxCell>
        <mxCell id="uluxawA2eOM56OSotcPA-5" value="Thông báo NVL cần để sản xuất" style="text;html=1;align=center;verticalAlign=middle;resizable=0;points=[];autosize=1;strokeColor=none;fillColor=none;rotation=30;" vertex="1" parent="1">
          <mxGeometry x="200" y="660" width="200" height="30" as="geometry" />
        </mxCell>
        <mxCell id="uluxawA2eOM56OSotcPA-6" value="Cung cấp NVL" style="text;html=1;align=center;verticalAlign=middle;resizable=0;points=[];autosize=1;strokeColor=none;fillColor=none;rotation=30;" vertex="1" parent="1">
          <mxGeometry x="160" y="700" width="100" height="30" as="geometry" />
        </mxCell>
      </root>
    </mxGraphModel>
  </diagram>
  <diagram id="GngUdyByza0NCVvZXjfv" name="DFD LV1">
    <mxGraphModel dx="3404" dy="2204" grid="1" gridSize="10" guides="1" tooltips="1" connect="1" arrows="1" fold="1" page="1" pageScale="1" pageWidth="827" pageHeight="1169" math="0" shadow="0">
      <root>
        <mxCell id="0" />
        <mxCell id="1" parent="0" />
        <mxCell id="MXI4mosmB2wzb5xzaaZQ-12" style="rounded=0;orthogonalLoop=1;jettySize=auto;html=1;" parent="1" source="MXI4mosmB2wzb5xzaaZQ-5" target="MXI4mosmB2wzb5xzaaZQ-9" edge="1">
          <mxGeometry relative="1" as="geometry" />
        </mxCell>
        <mxCell id="MXI4mosmB2wzb5xzaaZQ-5" value="Lựa chọn NCC" style="ellipse;whiteSpace=wrap;html=1;aspect=fixed;" parent="1" vertex="1">
          <mxGeometry x="195" y="900" width="90" height="90" as="geometry" />
        </mxCell>
        <mxCell id="MXI4mosmB2wzb5xzaaZQ-6" value="" style="endArrow=none;html=1;rounded=0;exitX=0.072;exitY=0.247;exitDx=0;exitDy=0;entryX=0.938;entryY=0.253;entryDx=0;entryDy=0;entryPerimeter=0;exitPerimeter=0;" parent="1" source="MXI4mosmB2wzb5xzaaZQ-5" target="MXI4mosmB2wzb5xzaaZQ-5" edge="1">
          <mxGeometry width="50" height="50" relative="1" as="geometry">
            <mxPoint x="326.7157287525382" y="909.9957287525381" as="sourcePoint" />
            <mxPoint x="383.2842712474618" y="909.9957287525381" as="targetPoint" />
          </mxGeometry>
        </mxCell>
        <mxCell id="MXI4mosmB2wzb5xzaaZQ-7" value="1.1" style="text;html=1;align=center;verticalAlign=middle;resizable=0;points=[];autosize=1;strokeColor=none;fillColor=none;" parent="1" vertex="1">
          <mxGeometry x="220" y="900" width="40" height="30" as="geometry" />
        </mxCell>
        <mxCell id="MXI4mosmB2wzb5xzaaZQ-49" style="rounded=0;orthogonalLoop=1;jettySize=auto;html=1;" parent="1" source="MXI4mosmB2wzb5xzaaZQ-9" target="MXI4mosmB2wzb5xzaaZQ-67" edge="1">
          <mxGeometry relative="1" as="geometry">
            <mxPoint x="660" y="945" as="targetPoint" />
          </mxGeometry>
        </mxCell>
        <mxCell id="MXI4mosmB2wzb5xzaaZQ-9" value="Làm hợp đồng với NCC" style="ellipse;whiteSpace=wrap;html=1;aspect=fixed;" parent="1" vertex="1">
          <mxGeometry x="430" y="900" width="90" height="90" as="geometry" />
        </mxCell>
        <mxCell id="MXI4mosmB2wzb5xzaaZQ-10" value="" style="endArrow=none;html=1;rounded=0;entryX=0.938;entryY=0.253;entryDx=0;entryDy=0;entryPerimeter=0;" parent="1" target="MXI4mosmB2wzb5xzaaZQ-9" edge="1">
          <mxGeometry width="50" height="50" relative="1" as="geometry">
            <mxPoint x="436" y="922" as="sourcePoint" />
            <mxPoint x="618.2842712474618" y="909.9957287525381" as="targetPoint" />
          </mxGeometry>
        </mxCell>
        <mxCell id="MXI4mosmB2wzb5xzaaZQ-11" value="1.2" style="text;html=1;align=center;verticalAlign=middle;resizable=0;points=[];autosize=1;strokeColor=none;fillColor=none;" parent="1" vertex="1">
          <mxGeometry x="455" y="900" width="40" height="30" as="geometry" />
        </mxCell>
        <mxCell id="MXI4mosmB2wzb5xzaaZQ-74" style="rounded=0;orthogonalLoop=1;jettySize=auto;html=1;" parent="1" source="MXI4mosmB2wzb5xzaaZQ-28" target="MXI4mosmB2wzb5xzaaZQ-69" edge="1">
          <mxGeometry relative="1" as="geometry" />
        </mxCell>
        <mxCell id="MXI4mosmB2wzb5xzaaZQ-28" value="Cung cấp thông tin đơn hàng" style="ellipse;whiteSpace=wrap;html=1;aspect=fixed;" parent="1" vertex="1">
          <mxGeometry x="675" y="755" width="90" height="90" as="geometry" />
        </mxCell>
        <mxCell id="MXI4mosmB2wzb5xzaaZQ-29" value="" style="endArrow=none;html=1;rounded=0;exitX=0.072;exitY=0.247;exitDx=0;exitDy=0;entryX=0.938;entryY=0.253;entryDx=0;entryDy=0;entryPerimeter=0;exitPerimeter=0;" parent="1" source="MXI4mosmB2wzb5xzaaZQ-28" target="MXI4mosmB2wzb5xzaaZQ-28" edge="1">
          <mxGeometry width="50" height="50" relative="1" as="geometry">
            <mxPoint x="721.7157287525382" y="764.9957287525381" as="sourcePoint" />
            <mxPoint x="778.2842712474618" y="764.9957287525381" as="targetPoint" />
          </mxGeometry>
        </mxCell>
        <mxCell id="MXI4mosmB2wzb5xzaaZQ-30" value="1.3" style="text;html=1;align=center;verticalAlign=middle;resizable=0;points=[];autosize=1;strokeColor=none;fillColor=none;" parent="1" vertex="1">
          <mxGeometry x="700" y="755" width="40" height="30" as="geometry" />
        </mxCell>
        <mxCell id="MXI4mosmB2wzb5xzaaZQ-97" style="edgeStyle=orthogonalEdgeStyle;rounded=0;orthogonalLoop=1;jettySize=auto;html=1;" parent="1" source="MXI4mosmB2wzb5xzaaZQ-34" target="MXI4mosmB2wzb5xzaaZQ-94" edge="1">
          <mxGeometry relative="1" as="geometry" />
        </mxCell>
        <mxCell id="CdylEvhUuxp3gXdenQjc-23" style="edgeStyle=orthogonalEdgeStyle;rounded=0;orthogonalLoop=1;jettySize=auto;html=1;" edge="1" parent="1" source="MXI4mosmB2wzb5xzaaZQ-34" target="CdylEvhUuxp3gXdenQjc-20">
          <mxGeometry relative="1" as="geometry" />
        </mxCell>
        <mxCell id="CdylEvhUuxp3gXdenQjc-38" style="edgeStyle=orthogonalEdgeStyle;rounded=0;orthogonalLoop=1;jettySize=auto;html=1;" edge="1" parent="1" source="MXI4mosmB2wzb5xzaaZQ-34" target="CdylEvhUuxp3gXdenQjc-35">
          <mxGeometry relative="1" as="geometry">
            <Array as="points">
              <mxPoint x="-350" y="670" />
              <mxPoint x="-350" y="615" />
            </Array>
          </mxGeometry>
        </mxCell>
        <mxCell id="CdylEvhUuxp3gXdenQjc-97" style="edgeStyle=orthogonalEdgeStyle;rounded=0;orthogonalLoop=1;jettySize=auto;html=1;" edge="1" parent="1" source="MXI4mosmB2wzb5xzaaZQ-34" target="CdylEvhUuxp3gXdenQjc-89">
          <mxGeometry relative="1" as="geometry">
            <Array as="points">
              <mxPoint x="-45" y="670" />
            </Array>
          </mxGeometry>
        </mxCell>
        <mxCell id="MXI4mosmB2wzb5xzaaZQ-34" value="Kho" style="rounded=0;whiteSpace=wrap;html=1;" parent="1" vertex="1">
          <mxGeometry x="-250" y="650" width="120" height="60" as="geometry" />
        </mxCell>
        <mxCell id="MXI4mosmB2wzb5xzaaZQ-35" value="Lập phiếu đánh giá NCC" style="text;html=1;align=center;verticalAlign=middle;resizable=0;points=[];autosize=1;strokeColor=none;fillColor=none;rotation=0;" parent="1" vertex="1">
          <mxGeometry x="280" y="915" width="150" height="30" as="geometry" />
        </mxCell>
        <mxCell id="MXI4mosmB2wzb5xzaaZQ-51" value="Lập đơn mua hàng" style="text;html=1;align=center;verticalAlign=middle;resizable=0;points=[];autosize=1;strokeColor=none;fillColor=none;" parent="1" vertex="1">
          <mxGeometry x="530" y="915" width="120" height="30" as="geometry" />
        </mxCell>
        <mxCell id="MXI4mosmB2wzb5xzaaZQ-54" style="rounded=0;orthogonalLoop=1;jettySize=auto;html=1;edgeStyle=orthogonalEdgeStyle;" parent="1" source="MXI4mosmB2wzb5xzaaZQ-53" target="MXI4mosmB2wzb5xzaaZQ-5" edge="1">
          <mxGeometry relative="1" as="geometry" />
        </mxCell>
        <mxCell id="MXI4mosmB2wzb5xzaaZQ-98" style="edgeStyle=orthogonalEdgeStyle;rounded=0;orthogonalLoop=1;jettySize=auto;html=1;" parent="1" source="MXI4mosmB2wzb5xzaaZQ-53" target="MXI4mosmB2wzb5xzaaZQ-91" edge="1">
          <mxGeometry relative="1" as="geometry">
            <Array as="points">
              <mxPoint x="-140" y="930" />
              <mxPoint x="-10" y="930" />
              <mxPoint x="-10" y="815" />
            </Array>
          </mxGeometry>
        </mxCell>
        <mxCell id="HKwf8sezkfhnfanwjsFc-7" style="edgeStyle=orthogonalEdgeStyle;rounded=0;orthogonalLoop=1;jettySize=auto;html=1;" edge="1" parent="1" source="MXI4mosmB2wzb5xzaaZQ-53" target="HKwf8sezkfhnfanwjsFc-2">
          <mxGeometry relative="1" as="geometry">
            <Array as="points">
              <mxPoint x="-175" y="910" />
              <mxPoint x="-175" y="910" />
            </Array>
          </mxGeometry>
        </mxCell>
        <mxCell id="7jJFQYf5EpycbgJDhQD1-15" style="edgeStyle=orthogonalEdgeStyle;rounded=0;orthogonalLoop=1;jettySize=auto;html=1;" edge="1" parent="1" source="MXI4mosmB2wzb5xzaaZQ-53" target="7jJFQYf5EpycbgJDhQD1-12">
          <mxGeometry relative="1" as="geometry">
            <Array as="points">
              <mxPoint x="-200" y="910" />
              <mxPoint x="-405" y="910" />
            </Array>
          </mxGeometry>
        </mxCell>
        <mxCell id="CdylEvhUuxp3gXdenQjc-31" style="edgeStyle=orthogonalEdgeStyle;rounded=0;orthogonalLoop=1;jettySize=auto;html=1;" edge="1" parent="1" source="MXI4mosmB2wzb5xzaaZQ-53" target="CdylEvhUuxp3gXdenQjc-28">
          <mxGeometry relative="1" as="geometry">
            <Array as="points">
              <mxPoint x="-160" y="890" />
              <mxPoint x="-70" y="890" />
            </Array>
          </mxGeometry>
        </mxCell>
        <mxCell id="CdylEvhUuxp3gXdenQjc-32" style="edgeStyle=orthogonalEdgeStyle;rounded=0;orthogonalLoop=1;jettySize=auto;html=1;" edge="1" parent="1" source="MXI4mosmB2wzb5xzaaZQ-53" target="CdylEvhUuxp3gXdenQjc-25">
          <mxGeometry relative="1" as="geometry">
            <Array as="points">
              <mxPoint x="-285" y="980" />
            </Array>
          </mxGeometry>
        </mxCell>
        <mxCell id="CdylEvhUuxp3gXdenQjc-95" style="edgeStyle=orthogonalEdgeStyle;rounded=0;orthogonalLoop=1;jettySize=auto;html=1;" edge="1" parent="1" source="MXI4mosmB2wzb5xzaaZQ-53" target="CdylEvhUuxp3gXdenQjc-92">
          <mxGeometry relative="1" as="geometry">
            <Array as="points">
              <mxPoint x="-175" y="960" />
              <mxPoint x="20" y="960" />
              <mxPoint x="20" y="870" />
            </Array>
          </mxGeometry>
        </mxCell>
        <mxCell id="MXI4mosmB2wzb5xzaaZQ-53" value="BPVT" style="rounded=0;whiteSpace=wrap;html=1;" parent="1" vertex="1">
          <mxGeometry x="-235" y="965" width="120" height="60" as="geometry" />
        </mxCell>
        <mxCell id="MXI4mosmB2wzb5xzaaZQ-55" value="Mua NVL về nhập kho" style="text;html=1;align=center;verticalAlign=middle;resizable=0;points=[];autosize=1;strokeColor=none;fillColor=none;rotation=0;" parent="1" vertex="1">
          <mxGeometry x="40" y="915" width="140" height="30" as="geometry" />
        </mxCell>
        <mxCell id="MXI4mosmB2wzb5xzaaZQ-70" style="rounded=0;orthogonalLoop=1;jettySize=auto;html=1;" parent="1" source="MXI4mosmB2wzb5xzaaZQ-67" target="MXI4mosmB2wzb5xzaaZQ-28" edge="1">
          <mxGeometry relative="1" as="geometry" />
        </mxCell>
        <mxCell id="MXI4mosmB2wzb5xzaaZQ-67" value="Đơn mua hàng" style="shape=partialRectangle;whiteSpace=wrap;html=1;left=0;right=0;fillColor=none;" parent="1" vertex="1">
          <mxGeometry x="670" y="925" width="100" height="40" as="geometry" />
        </mxCell>
        <mxCell id="MXI4mosmB2wzb5xzaaZQ-85" style="edgeStyle=orthogonalEdgeStyle;rounded=0;orthogonalLoop=1;jettySize=auto;html=1;" parent="1" source="MXI4mosmB2wzb5xzaaZQ-69" target="MXI4mosmB2wzb5xzaaZQ-77" edge="1">
          <mxGeometry relative="1" as="geometry" />
        </mxCell>
        <mxCell id="MXI4mosmB2wzb5xzaaZQ-69" value="NCC" style="rounded=0;whiteSpace=wrap;html=1;" parent="1" vertex="1">
          <mxGeometry x="660" y="600" width="120" height="60" as="geometry" />
        </mxCell>
        <mxCell id="CdylEvhUuxp3gXdenQjc-102" style="edgeStyle=orthogonalEdgeStyle;rounded=0;orthogonalLoop=1;jettySize=auto;html=1;" edge="1" parent="1" source="MXI4mosmB2wzb5xzaaZQ-71" target="7jJFQYf5EpycbgJDhQD1-1">
          <mxGeometry relative="1" as="geometry">
            <Array as="points">
              <mxPoint x="-140" y="445" />
            </Array>
          </mxGeometry>
        </mxCell>
        <mxCell id="MXI4mosmB2wzb5xzaaZQ-71" value="Yêu cầu" style="ellipse;whiteSpace=wrap;html=1;aspect=fixed;" parent="1" vertex="1">
          <mxGeometry x="5" y="300" width="90" height="90" as="geometry" />
        </mxCell>
        <mxCell id="MXI4mosmB2wzb5xzaaZQ-72" value="" style="endArrow=none;html=1;rounded=0;exitX=0.072;exitY=0.247;exitDx=0;exitDy=0;entryX=0.938;entryY=0.253;entryDx=0;entryDy=0;entryPerimeter=0;exitPerimeter=0;" parent="1" source="MXI4mosmB2wzb5xzaaZQ-71" target="MXI4mosmB2wzb5xzaaZQ-71" edge="1">
          <mxGeometry width="50" height="50" relative="1" as="geometry">
            <mxPoint x="121.71572875253821" y="299.99572875253807" as="sourcePoint" />
            <mxPoint x="178.2842712474618" y="299.99572875253807" as="targetPoint" />
          </mxGeometry>
        </mxCell>
        <mxCell id="MXI4mosmB2wzb5xzaaZQ-73" value="3.3" style="text;html=1;align=center;verticalAlign=middle;resizable=0;points=[];autosize=1;strokeColor=none;fillColor=none;" parent="1" vertex="1">
          <mxGeometry x="30" y="300" width="40" height="30" as="geometry" />
        </mxCell>
        <mxCell id="MXI4mosmB2wzb5xzaaZQ-75" value="Gửi thông tin đơn hàng" style="text;html=1;align=center;verticalAlign=middle;resizable=0;points=[];autosize=1;strokeColor=none;fillColor=none;" parent="1" vertex="1">
          <mxGeometry x="720" y="870" width="150" height="30" as="geometry" />
        </mxCell>
        <mxCell id="MXI4mosmB2wzb5xzaaZQ-76" value="Nhận thông tin đơn hàng" style="text;html=1;align=center;verticalAlign=middle;resizable=0;points=[];autosize=1;strokeColor=none;fillColor=none;" parent="1" vertex="1">
          <mxGeometry x="720" y="700" width="160" height="30" as="geometry" />
        </mxCell>
        <mxCell id="MXI4mosmB2wzb5xzaaZQ-89" style="edgeStyle=orthogonalEdgeStyle;rounded=0;orthogonalLoop=1;jettySize=auto;html=1;" parent="1" source="MXI4mosmB2wzb5xzaaZQ-77" target="MXI4mosmB2wzb5xzaaZQ-88" edge="1">
          <mxGeometry relative="1" as="geometry" />
        </mxCell>
        <mxCell id="MXI4mosmB2wzb5xzaaZQ-77" value="Cung cấp NVL" style="ellipse;whiteSpace=wrap;html=1;aspect=fixed;" parent="1" vertex="1">
          <mxGeometry x="440" y="585" width="90" height="90" as="geometry" />
        </mxCell>
        <mxCell id="MXI4mosmB2wzb5xzaaZQ-78" value="" style="endArrow=none;html=1;rounded=0;exitX=0.072;exitY=0.247;exitDx=0;exitDy=0;entryX=0.938;entryY=0.253;entryDx=0;entryDy=0;entryPerimeter=0;exitPerimeter=0;" parent="1" source="MXI4mosmB2wzb5xzaaZQ-77" target="MXI4mosmB2wzb5xzaaZQ-77" edge="1">
          <mxGeometry width="50" height="50" relative="1" as="geometry">
            <mxPoint x="571.7157287525382" y="594.9957287525381" as="sourcePoint" />
            <mxPoint x="628.2842712474618" y="594.9957287525381" as="targetPoint" />
          </mxGeometry>
        </mxCell>
        <mxCell id="MXI4mosmB2wzb5xzaaZQ-79" value="1.4" style="text;html=1;align=center;verticalAlign=middle;resizable=0;points=[];autosize=1;strokeColor=none;fillColor=none;" parent="1" vertex="1">
          <mxGeometry x="465" y="585" width="40" height="30" as="geometry" />
        </mxCell>
        <mxCell id="MXI4mosmB2wzb5xzaaZQ-87" value="Kiểm tra giấy tờ hợp lệ" style="text;html=1;align=center;verticalAlign=middle;resizable=0;points=[];autosize=1;strokeColor=none;fillColor=none;" parent="1" vertex="1">
          <mxGeometry x="520" y="600" width="150" height="30" as="geometry" />
        </mxCell>
        <mxCell id="MXI4mosmB2wzb5xzaaZQ-88" value="Đơn hàng" style="shape=partialRectangle;whiteSpace=wrap;html=1;left=0;right=0;fillColor=none;" parent="1" vertex="1">
          <mxGeometry x="255" y="610" width="80" height="40" as="geometry" />
        </mxCell>
        <mxCell id="MXI4mosmB2wzb5xzaaZQ-100" style="edgeStyle=orthogonalEdgeStyle;rounded=0;orthogonalLoop=1;jettySize=auto;html=1;" parent="1" source="MXI4mosmB2wzb5xzaaZQ-91" target="MXI4mosmB2wzb5xzaaZQ-88" edge="1">
          <mxGeometry relative="1" as="geometry" />
        </mxCell>
        <mxCell id="MXI4mosmB2wzb5xzaaZQ-91" value="Kiểm tra chất lượng NVL" style="ellipse;whiteSpace=wrap;html=1;aspect=fixed;" parent="1" vertex="1">
          <mxGeometry x="140" y="770" width="90" height="90" as="geometry" />
        </mxCell>
        <mxCell id="MXI4mosmB2wzb5xzaaZQ-92" value="" style="endArrow=none;html=1;rounded=0;exitX=0.072;exitY=0.247;exitDx=0;exitDy=0;entryX=0.938;entryY=0.253;entryDx=0;entryDy=0;entryPerimeter=0;exitPerimeter=0;" parent="1" source="MXI4mosmB2wzb5xzaaZQ-91" target="MXI4mosmB2wzb5xzaaZQ-91" edge="1">
          <mxGeometry width="50" height="50" relative="1" as="geometry">
            <mxPoint x="271.7157287525382" y="779.9957287525381" as="sourcePoint" />
            <mxPoint x="328.2842712474618" y="779.9957287525381" as="targetPoint" />
          </mxGeometry>
        </mxCell>
        <mxCell id="MXI4mosmB2wzb5xzaaZQ-93" value="1.6" style="text;html=1;align=center;verticalAlign=middle;resizable=0;points=[];autosize=1;strokeColor=none;fillColor=none;" parent="1" vertex="1">
          <mxGeometry x="165" y="770" width="40" height="30" as="geometry" />
        </mxCell>
        <mxCell id="MXI4mosmB2wzb5xzaaZQ-99" style="edgeStyle=orthogonalEdgeStyle;rounded=0;orthogonalLoop=1;jettySize=auto;html=1;" parent="1" source="MXI4mosmB2wzb5xzaaZQ-94" target="MXI4mosmB2wzb5xzaaZQ-88" edge="1">
          <mxGeometry relative="1" as="geometry" />
        </mxCell>
        <mxCell id="7jJFQYf5EpycbgJDhQD1-10" style="edgeStyle=orthogonalEdgeStyle;rounded=0;orthogonalLoop=1;jettySize=auto;html=1;" edge="1" parent="1" source="MXI4mosmB2wzb5xzaaZQ-94" target="7jJFQYf5EpycbgJDhQD1-7">
          <mxGeometry relative="1" as="geometry" />
        </mxCell>
        <mxCell id="MXI4mosmB2wzb5xzaaZQ-94" value="Kiểm tra số lượng NVL" style="ellipse;whiteSpace=wrap;html=1;aspect=fixed;" parent="1" vertex="1">
          <mxGeometry x="70" y="585" width="90" height="90" as="geometry" />
        </mxCell>
        <mxCell id="MXI4mosmB2wzb5xzaaZQ-95" value="" style="endArrow=none;html=1;rounded=0;exitX=0.072;exitY=0.247;exitDx=0;exitDy=0;entryX=0.938;entryY=0.253;entryDx=0;entryDy=0;entryPerimeter=0;exitPerimeter=0;" parent="1" source="MXI4mosmB2wzb5xzaaZQ-94" target="MXI4mosmB2wzb5xzaaZQ-94" edge="1">
          <mxGeometry width="50" height="50" relative="1" as="geometry">
            <mxPoint x="201.7157287525382" y="594.9957287525381" as="sourcePoint" />
            <mxPoint x="258.2842712474618" y="594.9957287525381" as="targetPoint" />
          </mxGeometry>
        </mxCell>
        <mxCell id="MXI4mosmB2wzb5xzaaZQ-96" value="1.7" style="text;html=1;align=center;verticalAlign=middle;resizable=0;points=[];autosize=1;strokeColor=none;fillColor=none;" parent="1" vertex="1">
          <mxGeometry x="95" y="585" width="40" height="30" as="geometry" />
        </mxCell>
        <mxCell id="CdylEvhUuxp3gXdenQjc-17" style="edgeStyle=orthogonalEdgeStyle;rounded=0;orthogonalLoop=1;jettySize=auto;html=1;" edge="1" parent="1" source="HKwf8sezkfhnfanwjsFc-2" target="MXI4mosmB2wzb5xzaaZQ-34">
          <mxGeometry relative="1" as="geometry">
            <Array as="points">
              <mxPoint x="-180" y="730" />
              <mxPoint x="-180" y="730" />
            </Array>
          </mxGeometry>
        </mxCell>
        <mxCell id="HKwf8sezkfhnfanwjsFc-2" value="Thông báo kiểm tra NVL" style="ellipse;whiteSpace=wrap;html=1;aspect=fixed;" vertex="1" parent="1">
          <mxGeometry x="-220" y="785" width="90" height="90" as="geometry" />
        </mxCell>
        <mxCell id="HKwf8sezkfhnfanwjsFc-3" value="" style="endArrow=none;html=1;rounded=0;exitX=0.072;exitY=0.247;exitDx=0;exitDy=0;entryX=0.938;entryY=0.253;entryDx=0;entryDy=0;entryPerimeter=0;exitPerimeter=0;" edge="1" parent="1" source="HKwf8sezkfhnfanwjsFc-2" target="HKwf8sezkfhnfanwjsFc-2">
          <mxGeometry width="50" height="50" relative="1" as="geometry">
            <mxPoint x="-88.28427124746179" y="774.9957287525381" as="sourcePoint" />
            <mxPoint x="-31.71572875253821" y="774.9957287525381" as="targetPoint" />
          </mxGeometry>
        </mxCell>
        <mxCell id="HKwf8sezkfhnfanwjsFc-4" value="1.5" style="text;html=1;align=center;verticalAlign=middle;resizable=0;points=[];autosize=1;strokeColor=none;fillColor=none;" vertex="1" parent="1">
          <mxGeometry x="-195" y="785" width="40" height="30" as="geometry" />
        </mxCell>
        <mxCell id="7jJFQYf5EpycbgJDhQD1-21" style="edgeStyle=orthogonalEdgeStyle;rounded=0;orthogonalLoop=1;jettySize=auto;html=1;" edge="1" parent="1" source="7jJFQYf5EpycbgJDhQD1-1" target="7jJFQYf5EpycbgJDhQD1-18">
          <mxGeometry relative="1" as="geometry">
            <Array as="points">
              <mxPoint x="-180" y="25" />
            </Array>
          </mxGeometry>
        </mxCell>
        <mxCell id="CdylEvhUuxp3gXdenQjc-43" style="edgeStyle=orthogonalEdgeStyle;rounded=0;orthogonalLoop=1;jettySize=auto;html=1;" edge="1" parent="1" source="7jJFQYf5EpycbgJDhQD1-1" target="CdylEvhUuxp3gXdenQjc-40">
          <mxGeometry relative="1" as="geometry">
            <Array as="points">
              <mxPoint x="-520" y="510" />
              <mxPoint x="-520" y="510" />
            </Array>
          </mxGeometry>
        </mxCell>
        <mxCell id="CdylEvhUuxp3gXdenQjc-68" style="edgeStyle=orthogonalEdgeStyle;rounded=0;orthogonalLoop=1;jettySize=auto;html=1;" edge="1" parent="1" source="7jJFQYf5EpycbgJDhQD1-1" target="CdylEvhUuxp3gXdenQjc-65">
          <mxGeometry relative="1" as="geometry">
            <Array as="points">
              <mxPoint x="-240" y="285" />
            </Array>
          </mxGeometry>
        </mxCell>
        <mxCell id="CdylEvhUuxp3gXdenQjc-81" style="edgeStyle=orthogonalEdgeStyle;rounded=0;orthogonalLoop=1;jettySize=auto;html=1;" edge="1" parent="1" source="7jJFQYf5EpycbgJDhQD1-1" target="CdylEvhUuxp3gXdenQjc-78">
          <mxGeometry relative="1" as="geometry">
            <Array as="points">
              <mxPoint x="-385" y="500" />
            </Array>
          </mxGeometry>
        </mxCell>
        <mxCell id="CdylEvhUuxp3gXdenQjc-107" style="edgeStyle=orthogonalEdgeStyle;rounded=0;orthogonalLoop=1;jettySize=auto;html=1;" edge="1" parent="1" source="7jJFQYf5EpycbgJDhQD1-1" target="CdylEvhUuxp3gXdenQjc-104">
          <mxGeometry relative="1" as="geometry">
            <Array as="points">
              <mxPoint x="-160" y="345" />
            </Array>
          </mxGeometry>
        </mxCell>
        <mxCell id="7jJFQYf5EpycbgJDhQD1-1" value="Kế toán" style="rounded=0;whiteSpace=wrap;html=1;" vertex="1" parent="1">
          <mxGeometry x="-250" y="480" width="120" height="60" as="geometry" />
        </mxCell>
        <mxCell id="7jJFQYf5EpycbgJDhQD1-11" style="edgeStyle=orthogonalEdgeStyle;rounded=0;orthogonalLoop=1;jettySize=auto;html=1;" edge="1" parent="1" source="7jJFQYf5EpycbgJDhQD1-7" target="7jJFQYf5EpycbgJDhQD1-1">
          <mxGeometry relative="1" as="geometry">
            <Array as="points">
              <mxPoint x="20" y="500" />
              <mxPoint x="20" y="500" />
            </Array>
          </mxGeometry>
        </mxCell>
        <mxCell id="7jJFQYf5EpycbgJDhQD1-7" value="Viết phiếu nhập kho" style="ellipse;whiteSpace=wrap;html=1;aspect=fixed;" vertex="1" parent="1">
          <mxGeometry x="65" y="440" width="90" height="90" as="geometry" />
        </mxCell>
        <mxCell id="7jJFQYf5EpycbgJDhQD1-8" value="" style="endArrow=none;html=1;rounded=0;exitX=0.072;exitY=0.247;exitDx=0;exitDy=0;entryX=0.938;entryY=0.253;entryDx=0;entryDy=0;entryPerimeter=0;exitPerimeter=0;" edge="1" parent="1" source="7jJFQYf5EpycbgJDhQD1-7" target="7jJFQYf5EpycbgJDhQD1-7">
          <mxGeometry width="50" height="50" relative="1" as="geometry">
            <mxPoint x="-281.2842712474618" y="764.9957287525381" as="sourcePoint" />
            <mxPoint x="-224.7157287525382" y="764.9957287525381" as="targetPoint" />
          </mxGeometry>
        </mxCell>
        <mxCell id="7jJFQYf5EpycbgJDhQD1-9" value="1.8" style="text;html=1;align=center;verticalAlign=middle;resizable=0;points=[];autosize=1;strokeColor=none;fillColor=none;" vertex="1" parent="1">
          <mxGeometry x="90" y="440" width="40" height="30" as="geometry" />
        </mxCell>
        <mxCell id="7jJFQYf5EpycbgJDhQD1-17" style="edgeStyle=orthogonalEdgeStyle;rounded=0;orthogonalLoop=1;jettySize=auto;html=1;" edge="1" parent="1" source="7jJFQYf5EpycbgJDhQD1-12" target="7jJFQYf5EpycbgJDhQD1-1">
          <mxGeometry relative="1" as="geometry">
            <Array as="points">
              <mxPoint x="-410" y="520" />
            </Array>
          </mxGeometry>
        </mxCell>
        <mxCell id="7jJFQYf5EpycbgJDhQD1-12" value="Gửi hoá đơn" style="ellipse;whiteSpace=wrap;html=1;aspect=fixed;" vertex="1" parent="1">
          <mxGeometry x="-450" y="755" width="90" height="90" as="geometry" />
        </mxCell>
        <mxCell id="7jJFQYf5EpycbgJDhQD1-13" value="" style="endArrow=none;html=1;rounded=0;exitX=0.072;exitY=0.247;exitDx=0;exitDy=0;entryX=0.938;entryY=0.253;entryDx=0;entryDy=0;entryPerimeter=0;exitPerimeter=0;" edge="1" parent="1" source="7jJFQYf5EpycbgJDhQD1-12" target="7jJFQYf5EpycbgJDhQD1-12">
          <mxGeometry width="50" height="50" relative="1" as="geometry">
            <mxPoint x="-318.2842712474618" y="764.9957287525381" as="sourcePoint" />
            <mxPoint x="-261.7157287525382" y="764.9957287525381" as="targetPoint" />
          </mxGeometry>
        </mxCell>
        <mxCell id="7jJFQYf5EpycbgJDhQD1-14" value="1" style="text;html=1;align=center;verticalAlign=middle;resizable=0;points=[];autosize=1;strokeColor=none;fillColor=none;" vertex="1" parent="1">
          <mxGeometry x="-420" y="755" width="30" height="30" as="geometry" />
        </mxCell>
        <mxCell id="7jJFQYf5EpycbgJDhQD1-29" style="edgeStyle=orthogonalEdgeStyle;rounded=0;orthogonalLoop=1;jettySize=auto;html=1;" edge="1" parent="1" source="7jJFQYf5EpycbgJDhQD1-18" target="7jJFQYf5EpycbgJDhQD1-23">
          <mxGeometry relative="1" as="geometry">
            <Array as="points">
              <mxPoint x="540" y="10" />
            </Array>
          </mxGeometry>
        </mxCell>
        <mxCell id="7jJFQYf5EpycbgJDhQD1-30" style="edgeStyle=orthogonalEdgeStyle;rounded=0;orthogonalLoop=1;jettySize=auto;html=1;" edge="1" parent="1" source="7jJFQYf5EpycbgJDhQD1-18" target="7jJFQYf5EpycbgJDhQD1-26">
          <mxGeometry relative="1" as="geometry">
            <Array as="points">
              <mxPoint x="110" y="25" />
              <mxPoint x="110" y="400" />
            </Array>
          </mxGeometry>
        </mxCell>
        <mxCell id="7jJFQYf5EpycbgJDhQD1-18" value="Thanh toán" style="ellipse;whiteSpace=wrap;html=1;aspect=fixed;" vertex="1" parent="1">
          <mxGeometry x="-25" y="-20" width="90" height="90" as="geometry" />
        </mxCell>
        <mxCell id="7jJFQYf5EpycbgJDhQD1-19" value="" style="endArrow=none;html=1;rounded=0;exitX=0.072;exitY=0.247;exitDx=0;exitDy=0;entryX=0.938;entryY=0.253;entryDx=0;entryDy=0;entryPerimeter=0;exitPerimeter=0;" edge="1" parent="1" source="7jJFQYf5EpycbgJDhQD1-18" target="7jJFQYf5EpycbgJDhQD1-18">
          <mxGeometry width="50" height="50" relative="1" as="geometry">
            <mxPoint x="106.71572875253821" y="-10.00427124746193" as="sourcePoint" />
            <mxPoint x="163.2842712474618" y="-10.00427124746193" as="targetPoint" />
          </mxGeometry>
        </mxCell>
        <mxCell id="7jJFQYf5EpycbgJDhQD1-20" value="1.9" style="text;html=1;align=center;verticalAlign=middle;resizable=0;points=[];autosize=1;strokeColor=none;fillColor=none;" vertex="1" parent="1">
          <mxGeometry y="-20" width="40" height="30" as="geometry" />
        </mxCell>
        <mxCell id="7jJFQYf5EpycbgJDhQD1-31" style="edgeStyle=orthogonalEdgeStyle;rounded=0;orthogonalLoop=1;jettySize=auto;html=1;" edge="1" parent="1" source="7jJFQYf5EpycbgJDhQD1-23" target="MXI4mosmB2wzb5xzaaZQ-69">
          <mxGeometry relative="1" as="geometry" />
        </mxCell>
        <mxCell id="7jJFQYf5EpycbgJDhQD1-23" value="Thanh toán ngay" style="ellipse;whiteSpace=wrap;html=1;aspect=fixed;" vertex="1" parent="1">
          <mxGeometry x="495" y="220" width="90" height="90" as="geometry" />
        </mxCell>
        <mxCell id="7jJFQYf5EpycbgJDhQD1-24" value="" style="endArrow=none;html=1;rounded=0;exitX=0.072;exitY=0.247;exitDx=0;exitDy=0;entryX=0.938;entryY=0.253;entryDx=0;entryDy=0;entryPerimeter=0;exitPerimeter=0;" edge="1" parent="1" source="7jJFQYf5EpycbgJDhQD1-23" target="7jJFQYf5EpycbgJDhQD1-23">
          <mxGeometry width="50" height="50" relative="1" as="geometry">
            <mxPoint x="626.7157287525382" y="229.99572875253807" as="sourcePoint" />
            <mxPoint x="683.2842712474618" y="229.99572875253807" as="targetPoint" />
          </mxGeometry>
        </mxCell>
        <mxCell id="7jJFQYf5EpycbgJDhQD1-25" value="1.10" style="text;html=1;align=center;verticalAlign=middle;resizable=0;points=[];autosize=1;strokeColor=none;fillColor=none;" vertex="1" parent="1">
          <mxGeometry x="515" y="220" width="50" height="30" as="geometry" />
        </mxCell>
        <mxCell id="7jJFQYf5EpycbgJDhQD1-32" style="edgeStyle=orthogonalEdgeStyle;rounded=0;orthogonalLoop=1;jettySize=auto;html=1;" edge="1" parent="1" source="7jJFQYf5EpycbgJDhQD1-26" target="MXI4mosmB2wzb5xzaaZQ-69">
          <mxGeometry relative="1" as="geometry">
            <Array as="points">
              <mxPoint x="325" y="510" />
              <mxPoint x="690" y="510" />
            </Array>
          </mxGeometry>
        </mxCell>
        <mxCell id="7jJFQYf5EpycbgJDhQD1-26" value="Theo dõi nợ" style="ellipse;whiteSpace=wrap;html=1;aspect=fixed;" vertex="1" parent="1">
          <mxGeometry x="280" y="370" width="90" height="90" as="geometry" />
        </mxCell>
        <mxCell id="7jJFQYf5EpycbgJDhQD1-27" value="" style="endArrow=none;html=1;rounded=0;exitX=0.072;exitY=0.247;exitDx=0;exitDy=0;entryX=0.938;entryY=0.253;entryDx=0;entryDy=0;entryPerimeter=0;exitPerimeter=0;" edge="1" parent="1" source="7jJFQYf5EpycbgJDhQD1-26" target="7jJFQYf5EpycbgJDhQD1-26">
          <mxGeometry width="50" height="50" relative="1" as="geometry">
            <mxPoint x="411.7157287525382" y="379.99572875253807" as="sourcePoint" />
            <mxPoint x="468.2842712474618" y="379.99572875253807" as="targetPoint" />
          </mxGeometry>
        </mxCell>
        <mxCell id="7jJFQYf5EpycbgJDhQD1-28" value="1.11" style="text;html=1;align=center;verticalAlign=middle;resizable=0;points=[];autosize=1;strokeColor=none;fillColor=none;" vertex="1" parent="1">
          <mxGeometry x="300" y="370" width="50" height="30" as="geometry" />
        </mxCell>
        <mxCell id="7jJFQYf5EpycbgJDhQD1-33" value="Còn nợ" style="text;html=1;align=center;verticalAlign=middle;resizable=0;points=[];autosize=1;strokeColor=none;fillColor=none;" vertex="1" parent="1">
          <mxGeometry x="125" y="370" width="60" height="30" as="geometry" />
        </mxCell>
        <mxCell id="7jJFQYf5EpycbgJDhQD1-34" value="Bằng tiền mặt thông qua phiếu chi, chuyển khoản qua ngân hàng" style="text;html=1;align=center;verticalAlign=middle;resizable=0;points=[];autosize=1;strokeColor=none;fillColor=none;" vertex="1" parent="1">
          <mxGeometry x="145" y="40" width="370" height="30" as="geometry" />
        </mxCell>
        <mxCell id="CdylEvhUuxp3gXdenQjc-6" style="edgeStyle=orthogonalEdgeStyle;rounded=0;orthogonalLoop=1;jettySize=auto;html=1;" edge="1" parent="1" source="CdylEvhUuxp3gXdenQjc-2" target="CdylEvhUuxp3gXdenQjc-3">
          <mxGeometry relative="1" as="geometry" />
        </mxCell>
        <mxCell id="CdylEvhUuxp3gXdenQjc-2" value="BPSX" style="rounded=0;whiteSpace=wrap;html=1;" vertex="1" parent="1">
          <mxGeometry x="-735" y="1045" width="120" height="60" as="geometry" />
        </mxCell>
        <mxCell id="CdylEvhUuxp3gXdenQjc-7" style="edgeStyle=orthogonalEdgeStyle;rounded=0;orthogonalLoop=1;jettySize=auto;html=1;" edge="1" parent="1" source="CdylEvhUuxp3gXdenQjc-3" target="MXI4mosmB2wzb5xzaaZQ-53">
          <mxGeometry relative="1" as="geometry" />
        </mxCell>
        <mxCell id="CdylEvhUuxp3gXdenQjc-3" value="Thông báo cung cấp NVL" style="ellipse;whiteSpace=wrap;html=1;aspect=fixed;" vertex="1" parent="1">
          <mxGeometry x="-450" y="1030" width="90" height="90" as="geometry" />
        </mxCell>
        <mxCell id="CdylEvhUuxp3gXdenQjc-4" value="" style="endArrow=none;html=1;rounded=0;exitX=0.072;exitY=0.247;exitDx=0;exitDy=0;entryX=0.938;entryY=0.253;entryDx=0;entryDy=0;entryPerimeter=0;exitPerimeter=0;" edge="1" parent="1" source="CdylEvhUuxp3gXdenQjc-3" target="CdylEvhUuxp3gXdenQjc-3">
          <mxGeometry width="50" height="50" relative="1" as="geometry">
            <mxPoint x="-318.2842712474618" y="1039.995728752538" as="sourcePoint" />
            <mxPoint x="-261.7157287525382" y="1039.995728752538" as="targetPoint" />
          </mxGeometry>
        </mxCell>
        <mxCell id="CdylEvhUuxp3gXdenQjc-5" value="2.1.1" style="text;html=1;align=center;verticalAlign=middle;resizable=0;points=[];autosize=1;strokeColor=none;fillColor=none;" vertex="1" parent="1">
          <mxGeometry x="-430" y="1030" width="50" height="30" as="geometry" />
        </mxCell>
        <mxCell id="CdylEvhUuxp3gXdenQjc-24" style="edgeStyle=orthogonalEdgeStyle;rounded=0;orthogonalLoop=1;jettySize=auto;html=1;" edge="1" parent="1" source="CdylEvhUuxp3gXdenQjc-20" target="CdylEvhUuxp3gXdenQjc-2">
          <mxGeometry relative="1" as="geometry" />
        </mxCell>
        <mxCell id="CdylEvhUuxp3gXdenQjc-20" value="Cung cấp NVL" style="ellipse;whiteSpace=wrap;html=1;aspect=fixed;" vertex="1" parent="1">
          <mxGeometry x="-720" y="740" width="90" height="90" as="geometry" />
        </mxCell>
        <mxCell id="CdylEvhUuxp3gXdenQjc-21" value="" style="endArrow=none;html=1;rounded=0;exitX=0.072;exitY=0.247;exitDx=0;exitDy=0;entryX=0.938;entryY=0.253;entryDx=0;entryDy=0;entryPerimeter=0;exitPerimeter=0;" edge="1" parent="1" source="CdylEvhUuxp3gXdenQjc-20" target="CdylEvhUuxp3gXdenQjc-20">
          <mxGeometry width="50" height="50" relative="1" as="geometry">
            <mxPoint x="-588.2842712474618" y="749.9957287525381" as="sourcePoint" />
            <mxPoint x="-531.7157287525382" y="749.9957287525381" as="targetPoint" />
          </mxGeometry>
        </mxCell>
        <mxCell id="CdylEvhUuxp3gXdenQjc-22" value="2.1.3" style="text;html=1;align=center;verticalAlign=middle;resizable=0;points=[];autosize=1;strokeColor=none;fillColor=none;" vertex="1" parent="1">
          <mxGeometry x="-700" y="740" width="50" height="30" as="geometry" />
        </mxCell>
        <mxCell id="CdylEvhUuxp3gXdenQjc-83" style="edgeStyle=orthogonalEdgeStyle;rounded=0;orthogonalLoop=1;jettySize=auto;html=1;" edge="1" parent="1" source="CdylEvhUuxp3gXdenQjc-25" target="MXI4mosmB2wzb5xzaaZQ-34">
          <mxGeometry relative="1" as="geometry" />
        </mxCell>
        <mxCell id="CdylEvhUuxp3gXdenQjc-25" value="Thông báo cung cấp NVL" style="ellipse;whiteSpace=wrap;html=1;aspect=fixed;" vertex="1" parent="1">
          <mxGeometry x="-330" y="795" width="90" height="90" as="geometry" />
        </mxCell>
        <mxCell id="CdylEvhUuxp3gXdenQjc-26" value="" style="endArrow=none;html=1;rounded=0;exitX=0.072;exitY=0.247;exitDx=0;exitDy=0;entryX=0.938;entryY=0.253;entryDx=0;entryDy=0;entryPerimeter=0;exitPerimeter=0;" edge="1" parent="1" source="CdylEvhUuxp3gXdenQjc-25" target="CdylEvhUuxp3gXdenQjc-25">
          <mxGeometry width="50" height="50" relative="1" as="geometry">
            <mxPoint x="-198.2842712474618" y="784.9957287525381" as="sourcePoint" />
            <mxPoint x="-141.7157287525382" y="784.9957287525381" as="targetPoint" />
          </mxGeometry>
        </mxCell>
        <mxCell id="CdylEvhUuxp3gXdenQjc-27" value="2.1.2" style="text;html=1;align=center;verticalAlign=middle;resizable=0;points=[];autosize=1;strokeColor=none;fillColor=none;" vertex="1" parent="1">
          <mxGeometry x="-310" y="795" width="50" height="30" as="geometry" />
        </mxCell>
        <mxCell id="CdylEvhUuxp3gXdenQjc-28" value="Lập đơn bán" style="ellipse;whiteSpace=wrap;html=1;aspect=fixed;" vertex="1" parent="1">
          <mxGeometry x="-115" y="725" width="90" height="90" as="geometry" />
        </mxCell>
        <mxCell id="CdylEvhUuxp3gXdenQjc-29" value="" style="endArrow=none;html=1;rounded=0;exitX=0.072;exitY=0.247;exitDx=0;exitDy=0;entryX=0.938;entryY=0.253;entryDx=0;entryDy=0;entryPerimeter=0;exitPerimeter=0;" edge="1" parent="1" source="CdylEvhUuxp3gXdenQjc-28" target="CdylEvhUuxp3gXdenQjc-28">
          <mxGeometry width="50" height="50" relative="1" as="geometry">
            <mxPoint x="16.71572875253821" y="714.9957287525381" as="sourcePoint" />
            <mxPoint x="73.28427124746179" y="714.9957287525381" as="targetPoint" />
          </mxGeometry>
        </mxCell>
        <mxCell id="CdylEvhUuxp3gXdenQjc-33" style="edgeStyle=orthogonalEdgeStyle;rounded=0;orthogonalLoop=1;jettySize=auto;html=1;" edge="1" parent="1" source="CdylEvhUuxp3gXdenQjc-28" target="MXI4mosmB2wzb5xzaaZQ-34">
          <mxGeometry relative="1" as="geometry">
            <Array as="points">
              <mxPoint x="-160" y="770" />
            </Array>
          </mxGeometry>
        </mxCell>
        <mxCell id="CdylEvhUuxp3gXdenQjc-30" value="2.2.2" style="text;html=1;align=center;verticalAlign=middle;resizable=0;points=[];autosize=1;strokeColor=none;fillColor=none;" vertex="1" parent="1">
          <mxGeometry x="-95" y="725" width="50" height="30" as="geometry" />
        </mxCell>
        <mxCell id="CdylEvhUuxp3gXdenQjc-48" style="edgeStyle=orthogonalEdgeStyle;rounded=0;orthogonalLoop=1;jettySize=auto;html=1;" edge="1" parent="1" source="CdylEvhUuxp3gXdenQjc-34" target="CdylEvhUuxp3gXdenQjc-45">
          <mxGeometry relative="1" as="geometry" />
        </mxCell>
        <mxCell id="CdylEvhUuxp3gXdenQjc-87" style="edgeStyle=orthogonalEdgeStyle;rounded=0;orthogonalLoop=1;jettySize=auto;html=1;" edge="1" parent="1" source="CdylEvhUuxp3gXdenQjc-34" target="CdylEvhUuxp3gXdenQjc-84">
          <mxGeometry relative="1" as="geometry" />
        </mxCell>
        <mxCell id="CdylEvhUuxp3gXdenQjc-34" value="Khách hàng" style="rounded=0;whiteSpace=wrap;html=1;" vertex="1" parent="1">
          <mxGeometry x="-710" y="210" width="120" height="60" as="geometry" />
        </mxCell>
        <mxCell id="CdylEvhUuxp3gXdenQjc-39" style="edgeStyle=orthogonalEdgeStyle;rounded=0;orthogonalLoop=1;jettySize=auto;html=1;" edge="1" parent="1" source="CdylEvhUuxp3gXdenQjc-35" target="7jJFQYf5EpycbgJDhQD1-1">
          <mxGeometry relative="1" as="geometry">
            <Array as="points">
              <mxPoint x="-190" y="600" />
            </Array>
          </mxGeometry>
        </mxCell>
        <mxCell id="CdylEvhUuxp3gXdenQjc-35" value="Viết phiếu xuất kho" style="ellipse;whiteSpace=wrap;html=1;aspect=fixed;" vertex="1" parent="1">
          <mxGeometry x="-540" y="570" width="90" height="90" as="geometry" />
        </mxCell>
        <mxCell id="CdylEvhUuxp3gXdenQjc-36" value="" style="endArrow=none;html=1;rounded=0;exitX=0.072;exitY=0.247;exitDx=0;exitDy=0;entryX=0.938;entryY=0.253;entryDx=0;entryDy=0;entryPerimeter=0;exitPerimeter=0;" edge="1" parent="1" source="CdylEvhUuxp3gXdenQjc-35" target="CdylEvhUuxp3gXdenQjc-35">
          <mxGeometry width="50" height="50" relative="1" as="geometry">
            <mxPoint x="-408.2842712474618" y="579.9957287525381" as="sourcePoint" />
            <mxPoint x="-351.7157287525382" y="579.9957287525381" as="targetPoint" />
          </mxGeometry>
        </mxCell>
        <mxCell id="CdylEvhUuxp3gXdenQjc-37" value="2.2.3" style="text;html=1;align=center;verticalAlign=middle;resizable=0;points=[];autosize=1;strokeColor=none;fillColor=none;" vertex="1" parent="1">
          <mxGeometry x="-520" y="570" width="50" height="30" as="geometry" />
        </mxCell>
        <mxCell id="CdylEvhUuxp3gXdenQjc-44" style="edgeStyle=orthogonalEdgeStyle;rounded=0;orthogonalLoop=1;jettySize=auto;html=1;" edge="1" parent="1" source="CdylEvhUuxp3gXdenQjc-40" target="CdylEvhUuxp3gXdenQjc-34">
          <mxGeometry relative="1" as="geometry" />
        </mxCell>
        <mxCell id="CdylEvhUuxp3gXdenQjc-40" value="Viết hoá đơn" style="ellipse;whiteSpace=wrap;html=1;aspect=fixed;" vertex="1" parent="1">
          <mxGeometry x="-700" y="440" width="90" height="90" as="geometry" />
        </mxCell>
        <mxCell id="CdylEvhUuxp3gXdenQjc-41" value="" style="endArrow=none;html=1;rounded=0;exitX=0.072;exitY=0.247;exitDx=0;exitDy=0;entryX=0.938;entryY=0.253;entryDx=0;entryDy=0;entryPerimeter=0;exitPerimeter=0;" edge="1" parent="1" source="CdylEvhUuxp3gXdenQjc-40" target="CdylEvhUuxp3gXdenQjc-40">
          <mxGeometry width="50" height="50" relative="1" as="geometry">
            <mxPoint x="-568.2842712474618" y="449.99572875253807" as="sourcePoint" />
            <mxPoint x="-511.7157287525382" y="449.99572875253807" as="targetPoint" />
          </mxGeometry>
        </mxCell>
        <mxCell id="CdylEvhUuxp3gXdenQjc-42" value="2.2.4" style="text;html=1;align=center;verticalAlign=middle;resizable=0;points=[];autosize=1;strokeColor=none;fillColor=none;" vertex="1" parent="1">
          <mxGeometry x="-680" y="440" width="50" height="30" as="geometry" />
        </mxCell>
        <mxCell id="CdylEvhUuxp3gXdenQjc-63" style="edgeStyle=orthogonalEdgeStyle;rounded=0;orthogonalLoop=1;jettySize=auto;html=1;" edge="1" parent="1" source="CdylEvhUuxp3gXdenQjc-45" target="CdylEvhUuxp3gXdenQjc-57">
          <mxGeometry relative="1" as="geometry">
            <Array as="points">
              <mxPoint x="-605" y="-80" />
            </Array>
          </mxGeometry>
        </mxCell>
        <mxCell id="CdylEvhUuxp3gXdenQjc-74" style="edgeStyle=orthogonalEdgeStyle;rounded=0;orthogonalLoop=1;jettySize=auto;html=1;" edge="1" parent="1" source="CdylEvhUuxp3gXdenQjc-45" target="CdylEvhUuxp3gXdenQjc-60">
          <mxGeometry relative="1" as="geometry">
            <Array as="points">
              <mxPoint x="-580" y="130" />
              <mxPoint x="-425" y="130" />
            </Array>
          </mxGeometry>
        </mxCell>
        <mxCell id="CdylEvhUuxp3gXdenQjc-76" style="edgeStyle=orthogonalEdgeStyle;rounded=0;orthogonalLoop=1;jettySize=auto;html=1;" edge="1" parent="1" source="CdylEvhUuxp3gXdenQjc-45" target="CdylEvhUuxp3gXdenQjc-54">
          <mxGeometry relative="1" as="geometry" />
        </mxCell>
        <mxCell id="CdylEvhUuxp3gXdenQjc-45" value="Thanh toán hoá đơn" style="ellipse;whiteSpace=wrap;html=1;aspect=fixed;" vertex="1" parent="1">
          <mxGeometry x="-650" y="10" width="90" height="90" as="geometry" />
        </mxCell>
        <mxCell id="CdylEvhUuxp3gXdenQjc-46" value="" style="endArrow=none;html=1;rounded=0;exitX=0.072;exitY=0.247;exitDx=0;exitDy=0;entryX=0.938;entryY=0.253;entryDx=0;entryDy=0;entryPerimeter=0;exitPerimeter=0;" edge="1" parent="1" source="CdylEvhUuxp3gXdenQjc-45" target="CdylEvhUuxp3gXdenQjc-45">
          <mxGeometry width="50" height="50" relative="1" as="geometry">
            <mxPoint x="-518.2842712474618" y="19.99572875253807" as="sourcePoint" />
            <mxPoint x="-461.7157287525382" y="19.99572875253807" as="targetPoint" />
          </mxGeometry>
        </mxCell>
        <mxCell id="CdylEvhUuxp3gXdenQjc-47" value="2.2.5" style="text;html=1;align=center;verticalAlign=middle;resizable=0;points=[];autosize=1;strokeColor=none;fillColor=none;" vertex="1" parent="1">
          <mxGeometry x="-630" y="10" width="50" height="30" as="geometry" />
        </mxCell>
        <mxCell id="CdylEvhUuxp3gXdenQjc-77" style="edgeStyle=orthogonalEdgeStyle;rounded=0;orthogonalLoop=1;jettySize=auto;html=1;" edge="1" parent="1" source="CdylEvhUuxp3gXdenQjc-54" target="7jJFQYf5EpycbgJDhQD1-1">
          <mxGeometry relative="1" as="geometry">
            <Array as="points">
              <mxPoint x="-200" y="55" />
            </Array>
          </mxGeometry>
        </mxCell>
        <mxCell id="CdylEvhUuxp3gXdenQjc-54" value="Còn nợ tiền" style="ellipse;whiteSpace=wrap;html=1;aspect=fixed;" vertex="1" parent="1">
          <mxGeometry x="-470" y="10" width="90" height="90" as="geometry" />
        </mxCell>
        <mxCell id="CdylEvhUuxp3gXdenQjc-55" value="" style="endArrow=none;html=1;rounded=0;exitX=0.072;exitY=0.247;exitDx=0;exitDy=0;entryX=0.938;entryY=0.253;entryDx=0;entryDy=0;entryPerimeter=0;exitPerimeter=0;" edge="1" parent="1" source="CdylEvhUuxp3gXdenQjc-54" target="CdylEvhUuxp3gXdenQjc-54">
          <mxGeometry width="50" height="50" relative="1" as="geometry">
            <mxPoint x="-338.2842712474618" y="19.99572875253807" as="sourcePoint" />
            <mxPoint x="-281.7157287525382" y="19.99572875253807" as="targetPoint" />
          </mxGeometry>
        </mxCell>
        <mxCell id="CdylEvhUuxp3gXdenQjc-56" value="2.2.5.3" style="text;html=1;align=center;verticalAlign=middle;resizable=0;points=[];autosize=1;strokeColor=none;fillColor=none;" vertex="1" parent="1">
          <mxGeometry x="-455" y="10" width="60" height="30" as="geometry" />
        </mxCell>
        <mxCell id="CdylEvhUuxp3gXdenQjc-64" style="edgeStyle=orthogonalEdgeStyle;rounded=0;orthogonalLoop=1;jettySize=auto;html=1;" edge="1" parent="1" source="CdylEvhUuxp3gXdenQjc-57" target="7jJFQYf5EpycbgJDhQD1-1">
          <mxGeometry relative="1" as="geometry">
            <Array as="points">
              <mxPoint x="-190" y="-85" />
            </Array>
          </mxGeometry>
        </mxCell>
        <mxCell id="CdylEvhUuxp3gXdenQjc-57" value="Thanh toán ngân hàng" style="ellipse;whiteSpace=wrap;html=1;aspect=fixed;" vertex="1" parent="1">
          <mxGeometry x="-470" y="-130" width="90" height="90" as="geometry" />
        </mxCell>
        <mxCell id="CdylEvhUuxp3gXdenQjc-58" value="" style="endArrow=none;html=1;rounded=0;exitX=0.072;exitY=0.247;exitDx=0;exitDy=0;entryX=0.938;entryY=0.253;entryDx=0;entryDy=0;entryPerimeter=0;exitPerimeter=0;" edge="1" parent="1" source="CdylEvhUuxp3gXdenQjc-57" target="CdylEvhUuxp3gXdenQjc-57">
          <mxGeometry width="50" height="50" relative="1" as="geometry">
            <mxPoint x="-338.2842712474618" y="-120.00427124746193" as="sourcePoint" />
            <mxPoint x="-281.7157287525382" y="-120.00427124746193" as="targetPoint" />
          </mxGeometry>
        </mxCell>
        <mxCell id="CdylEvhUuxp3gXdenQjc-59" value="2.2.5.2" style="text;html=1;align=center;verticalAlign=middle;resizable=0;points=[];autosize=1;strokeColor=none;fillColor=none;" vertex="1" parent="1">
          <mxGeometry x="-455" y="-130" width="60" height="30" as="geometry" />
        </mxCell>
        <mxCell id="CdylEvhUuxp3gXdenQjc-75" style="edgeStyle=orthogonalEdgeStyle;rounded=0;orthogonalLoop=1;jettySize=auto;html=1;" edge="1" parent="1" source="CdylEvhUuxp3gXdenQjc-60" target="7jJFQYf5EpycbgJDhQD1-1">
          <mxGeometry relative="1" as="geometry">
            <Array as="points">
              <mxPoint x="-210" y="195" />
            </Array>
          </mxGeometry>
        </mxCell>
        <mxCell id="CdylEvhUuxp3gXdenQjc-60" value="Thanh toán trực tiếp" style="ellipse;whiteSpace=wrap;html=1;aspect=fixed;" vertex="1" parent="1">
          <mxGeometry x="-470" y="150" width="90" height="90" as="geometry" />
        </mxCell>
        <mxCell id="CdylEvhUuxp3gXdenQjc-61" value="" style="endArrow=none;html=1;rounded=0;exitX=0.072;exitY=0.247;exitDx=0;exitDy=0;entryX=0.938;entryY=0.253;entryDx=0;entryDy=0;entryPerimeter=0;exitPerimeter=0;" edge="1" parent="1" source="CdylEvhUuxp3gXdenQjc-60" target="CdylEvhUuxp3gXdenQjc-60">
          <mxGeometry width="50" height="50" relative="1" as="geometry">
            <mxPoint x="-338.2842712474618" y="159.99572875253807" as="sourcePoint" />
            <mxPoint x="-281.7157287525382" y="159.99572875253807" as="targetPoint" />
          </mxGeometry>
        </mxCell>
        <mxCell id="CdylEvhUuxp3gXdenQjc-62" value="2.2.5.1" style="text;html=1;align=center;verticalAlign=middle;resizable=0;points=[];autosize=1;strokeColor=none;fillColor=none;" vertex="1" parent="1">
          <mxGeometry x="-455" y="150" width="60" height="30" as="geometry" />
        </mxCell>
        <mxCell id="CdylEvhUuxp3gXdenQjc-69" style="edgeStyle=orthogonalEdgeStyle;rounded=0;orthogonalLoop=1;jettySize=auto;html=1;" edge="1" parent="1" source="CdylEvhUuxp3gXdenQjc-65" target="CdylEvhUuxp3gXdenQjc-34">
          <mxGeometry relative="1" as="geometry" />
        </mxCell>
        <mxCell id="CdylEvhUuxp3gXdenQjc-65" value="Viết phiếu thu" style="ellipse;whiteSpace=wrap;html=1;aspect=fixed;" vertex="1" parent="1">
          <mxGeometry x="-360" y="240" width="90" height="90" as="geometry" />
        </mxCell>
        <mxCell id="CdylEvhUuxp3gXdenQjc-66" value="" style="endArrow=none;html=1;rounded=0;exitX=0.072;exitY=0.247;exitDx=0;exitDy=0;entryX=0.938;entryY=0.253;entryDx=0;entryDy=0;entryPerimeter=0;exitPerimeter=0;" edge="1" parent="1" source="CdylEvhUuxp3gXdenQjc-65" target="CdylEvhUuxp3gXdenQjc-65">
          <mxGeometry width="50" height="50" relative="1" as="geometry">
            <mxPoint x="-228.2842712474618" y="249.99572875253807" as="sourcePoint" />
            <mxPoint x="-171.7157287525382" y="249.99572875253807" as="targetPoint" />
          </mxGeometry>
        </mxCell>
        <mxCell id="CdylEvhUuxp3gXdenQjc-67" value="2.2.5.4" style="text;html=1;align=center;verticalAlign=middle;resizable=0;points=[];autosize=1;strokeColor=none;fillColor=none;" vertex="1" parent="1">
          <mxGeometry x="-345" y="240" width="60" height="30" as="geometry" />
        </mxCell>
        <mxCell id="CdylEvhUuxp3gXdenQjc-82" style="edgeStyle=orthogonalEdgeStyle;rounded=0;orthogonalLoop=1;jettySize=auto;html=1;" edge="1" parent="1" source="CdylEvhUuxp3gXdenQjc-78" target="CdylEvhUuxp3gXdenQjc-34">
          <mxGeometry relative="1" as="geometry">
            <Array as="points">
              <mxPoint x="-620" y="385" />
            </Array>
          </mxGeometry>
        </mxCell>
        <mxCell id="CdylEvhUuxp3gXdenQjc-78" value="Theo dõi nợ" style="ellipse;whiteSpace=wrap;html=1;aspect=fixed;" vertex="1" parent="1">
          <mxGeometry x="-430" y="340" width="90" height="90" as="geometry" />
        </mxCell>
        <mxCell id="CdylEvhUuxp3gXdenQjc-79" value="" style="endArrow=none;html=1;rounded=0;exitX=0.072;exitY=0.247;exitDx=0;exitDy=0;entryX=0.938;entryY=0.253;entryDx=0;entryDy=0;entryPerimeter=0;exitPerimeter=0;" edge="1" parent="1" source="CdylEvhUuxp3gXdenQjc-78" target="CdylEvhUuxp3gXdenQjc-78">
          <mxGeometry width="50" height="50" relative="1" as="geometry">
            <mxPoint x="-298.2842712474618" y="349.99572875253807" as="sourcePoint" />
            <mxPoint x="-241.7157287525382" y="349.99572875253807" as="targetPoint" />
          </mxGeometry>
        </mxCell>
        <mxCell id="CdylEvhUuxp3gXdenQjc-80" value="2.2.5.5" style="text;html=1;align=center;verticalAlign=middle;resizable=0;points=[];autosize=1;strokeColor=none;fillColor=none;" vertex="1" parent="1">
          <mxGeometry x="-415" y="340" width="60" height="30" as="geometry" />
        </mxCell>
        <mxCell id="CdylEvhUuxp3gXdenQjc-88" style="edgeStyle=orthogonalEdgeStyle;rounded=0;orthogonalLoop=1;jettySize=auto;html=1;" edge="1" parent="1" source="CdylEvhUuxp3gXdenQjc-84" target="MXI4mosmB2wzb5xzaaZQ-53">
          <mxGeometry relative="1" as="geometry">
            <Array as="points">
              <mxPoint x="-850" y="995" />
            </Array>
          </mxGeometry>
        </mxCell>
        <mxCell id="CdylEvhUuxp3gXdenQjc-84" value="Yêu cầu mua" style="ellipse;whiteSpace=wrap;html=1;aspect=fixed;" vertex="1" parent="1">
          <mxGeometry x="-890" y="460" width="90" height="90" as="geometry" />
        </mxCell>
        <mxCell id="CdylEvhUuxp3gXdenQjc-85" value="" style="endArrow=none;html=1;rounded=0;exitX=0.072;exitY=0.247;exitDx=0;exitDy=0;entryX=0.938;entryY=0.253;entryDx=0;entryDy=0;entryPerimeter=0;exitPerimeter=0;" edge="1" parent="1" source="CdylEvhUuxp3gXdenQjc-84" target="CdylEvhUuxp3gXdenQjc-84">
          <mxGeometry width="50" height="50" relative="1" as="geometry">
            <mxPoint x="-758.2842712474618" y="469.99572875253807" as="sourcePoint" />
            <mxPoint x="-701.7157287525382" y="469.99572875253807" as="targetPoint" />
          </mxGeometry>
        </mxCell>
        <mxCell id="CdylEvhUuxp3gXdenQjc-86" value="2.2.1" style="text;html=1;align=center;verticalAlign=middle;resizable=0;points=[];autosize=1;strokeColor=none;fillColor=none;" vertex="1" parent="1">
          <mxGeometry x="-870" y="460" width="50" height="30" as="geometry" />
        </mxCell>
        <mxCell id="CdylEvhUuxp3gXdenQjc-99" style="edgeStyle=orthogonalEdgeStyle;rounded=0;orthogonalLoop=1;jettySize=auto;html=1;" edge="1" parent="1" source="CdylEvhUuxp3gXdenQjc-89" target="7jJFQYf5EpycbgJDhQD1-1">
          <mxGeometry relative="1" as="geometry">
            <Array as="points">
              <mxPoint x="-160" y="575" />
            </Array>
          </mxGeometry>
        </mxCell>
        <mxCell id="CdylEvhUuxp3gXdenQjc-89" value="Kiểm tra số lượng NVL" style="ellipse;whiteSpace=wrap;html=1;aspect=fixed;" vertex="1" parent="1">
          <mxGeometry x="-90" y="530" width="90" height="90" as="geometry" />
        </mxCell>
        <mxCell id="CdylEvhUuxp3gXdenQjc-90" value="" style="endArrow=none;html=1;rounded=0;exitX=0.072;exitY=0.247;exitDx=0;exitDy=0;entryX=0.938;entryY=0.253;entryDx=0;entryDy=0;entryPerimeter=0;exitPerimeter=0;" edge="1" parent="1" source="CdylEvhUuxp3gXdenQjc-89" target="CdylEvhUuxp3gXdenQjc-89">
          <mxGeometry width="50" height="50" relative="1" as="geometry">
            <mxPoint x="41.71572875253821" y="539.9957287525381" as="sourcePoint" />
            <mxPoint x="98.28427124746179" y="539.9957287525381" as="targetPoint" />
          </mxGeometry>
        </mxCell>
        <mxCell id="CdylEvhUuxp3gXdenQjc-91" value="3.2" style="text;html=1;align=center;verticalAlign=middle;resizable=0;points=[];autosize=1;strokeColor=none;fillColor=none;" vertex="1" parent="1">
          <mxGeometry x="-65" y="530" width="40" height="30" as="geometry" />
        </mxCell>
        <mxCell id="CdylEvhUuxp3gXdenQjc-98" style="edgeStyle=orthogonalEdgeStyle;rounded=0;orthogonalLoop=1;jettySize=auto;html=1;" edge="1" parent="1" source="CdylEvhUuxp3gXdenQjc-92" target="7jJFQYf5EpycbgJDhQD1-1">
          <mxGeometry relative="1" as="geometry">
            <Array as="points">
              <mxPoint x="85" y="700" />
              <mxPoint x="-110" y="700" />
              <mxPoint x="-110" y="510" />
            </Array>
          </mxGeometry>
        </mxCell>
        <mxCell id="CdylEvhUuxp3gXdenQjc-92" value="Kiểm tra chất lượng NVL" style="ellipse;whiteSpace=wrap;html=1;aspect=fixed;" vertex="1" parent="1">
          <mxGeometry x="40" y="825" width="90" height="90" as="geometry" />
        </mxCell>
        <mxCell id="CdylEvhUuxp3gXdenQjc-93" value="" style="endArrow=none;html=1;rounded=0;exitX=0.072;exitY=0.247;exitDx=0;exitDy=0;entryX=0.938;entryY=0.253;entryDx=0;entryDy=0;entryPerimeter=0;exitPerimeter=0;elbow=vertical;" edge="1" parent="1" source="CdylEvhUuxp3gXdenQjc-92" target="CdylEvhUuxp3gXdenQjc-92">
          <mxGeometry width="50" height="50" relative="1" as="geometry">
            <mxPoint x="171.7157287525382" y="834.9957287525381" as="sourcePoint" />
            <mxPoint x="228.2842712474618" y="834.9957287525381" as="targetPoint" />
          </mxGeometry>
        </mxCell>
        <mxCell id="CdylEvhUuxp3gXdenQjc-94" value="3.1" style="text;html=1;align=center;verticalAlign=middle;resizable=0;points=[];autosize=1;strokeColor=none;fillColor=none;" vertex="1" parent="1">
          <mxGeometry x="65" y="825" width="40" height="30" as="geometry" />
        </mxCell>
        <mxCell id="CdylEvhUuxp3gXdenQjc-103" style="edgeStyle=orthogonalEdgeStyle;rounded=0;orthogonalLoop=1;jettySize=auto;html=1;" edge="1" parent="1" source="CdylEvhUuxp3gXdenQjc-100" target="MXI4mosmB2wzb5xzaaZQ-71">
          <mxGeometry relative="1" as="geometry">
            <Array as="points">
              <mxPoint x="50" y="200" />
              <mxPoint x="50" y="200" />
            </Array>
          </mxGeometry>
        </mxCell>
        <mxCell id="CdylEvhUuxp3gXdenQjc-100" value="Lãnh đạo" style="rounded=0;whiteSpace=wrap;html=1;" vertex="1" parent="1">
          <mxGeometry x="-40" y="110" width="120" height="60" as="geometry" />
        </mxCell>
        <mxCell id="CdylEvhUuxp3gXdenQjc-109" style="edgeStyle=orthogonalEdgeStyle;rounded=0;orthogonalLoop=1;jettySize=auto;html=1;" edge="1" parent="1" source="CdylEvhUuxp3gXdenQjc-104" target="CdylEvhUuxp3gXdenQjc-100">
          <mxGeometry relative="1" as="geometry">
            <Array as="points">
              <mxPoint x="-85" y="140" />
            </Array>
          </mxGeometry>
        </mxCell>
        <mxCell id="CdylEvhUuxp3gXdenQjc-104" value="Báo cáo" style="ellipse;whiteSpace=wrap;html=1;aspect=fixed;" vertex="1" parent="1">
          <mxGeometry x="-130" y="300" width="90" height="90" as="geometry" />
        </mxCell>
        <mxCell id="CdylEvhUuxp3gXdenQjc-105" value="" style="endArrow=none;html=1;rounded=0;exitX=0.072;exitY=0.247;exitDx=0;exitDy=0;entryX=0.938;entryY=0.253;entryDx=0;entryDy=0;entryPerimeter=0;exitPerimeter=0;" edge="1" parent="1" source="CdylEvhUuxp3gXdenQjc-104" target="CdylEvhUuxp3gXdenQjc-104">
          <mxGeometry width="50" height="50" relative="1" as="geometry">
            <mxPoint x="-13.284271247461788" y="299.99572875253807" as="sourcePoint" />
            <mxPoint x="43.28427124746179" y="299.99572875253807" as="targetPoint" />
          </mxGeometry>
        </mxCell>
        <mxCell id="CdylEvhUuxp3gXdenQjc-106" value="3.4" style="text;html=1;align=center;verticalAlign=middle;resizable=0;points=[];autosize=1;strokeColor=none;fillColor=none;" vertex="1" parent="1">
          <mxGeometry x="-105" y="300" width="40" height="30" as="geometry" />
        </mxCell>
      </root>
    </mxGraphModel>
  </diagram>
</mxfile>
